<svg xmlns="http://www.w3.org/2000/svg" xmlns:xlink="http://www.w3.org/1999/xlink" version="1.1" width="256" height="256" viewBox="0 0 256 256" xml:space="preserve">

<defs>
</defs>
<g style="stroke: none; stroke-width: 0; stroke-dasharray: none; stroke-linecap: butt; stroke-linejoin: miter; stroke-miterlimit: 10; fill: none; fill-rule: nonzero; opacity: 1;" transform="translate(9.164202334630346 9.164202334630318) scale(2.63 2.63)" >
	<path d="M 83.37 45.677 c 0.012 -0.035 0.022 -0.068 0.032 -0.103 c 0.055 -0.183 0.094 -0.373 0.094 -0.574 c 0 -0.201 -0.039 -0.391 -0.094 -0.574 c -0.01 -0.035 -0.02 -0.068 -0.032 -0.103 c -0.066 -0.183 -0.156 -0.353 -0.27 -0.507 c -0.008 -0.011 -0.01 -0.024 -0.018 -0.035 L 71.094 28.176 c -0.673 -0.876 -1.93 -1.04 -2.805 -0.368 c -0.876 0.673 -1.04 1.928 -0.367 2.804 L 77.437 43 H 27.497 c -1.104 0 -2 0.896 -2 2 s 0.896 2 2 2 h 49.941 l -9.515 12.387 c -0.673 0.876 -0.509 2.132 0.367 2.805 c 0.363 0.279 0.792 0.414 1.218 0.414 c 0.6 0 1.193 -0.269 1.587 -0.781 l 11.988 -15.605 c 0.008 -0.011 0.011 -0.025 0.019 -0.036 C 83.215 46.029 83.304 45.86 83.37 45.677 z" style="stroke: none; stroke-width: 1; stroke-dasharray: none; stroke-linecap: butt; stroke-linejoin: miter; stroke-miterlimit: 10; fill: rgb(0,0,0); fill-rule: nonzero; opacity: 1;" transform=" matrix(1 0 0 1 0 0) " stroke-linecap="round" />
	<path d="M 60.811 90 H 8.504 c -1.104 0 -2 -0.896 -2 -2 V 2 c 0 -1.104 0.896 -2 2 -2 h 52.306 c 1.104 0 2 0.896 2 2 v 34.423 c 0 1.104 -0.896 2 -2 2 s -2 -0.896 -2 -2 V 4 H 10.504 v 82 h 48.306 V 53.513 c 0 -1.104 0.896 -2 2 -2 s 2 0.896 2 2 V 88 C 62.811 89.104 61.915 90 60.811 90 z" style="stroke: none; stroke-width: 1; stroke-dasharray: none; stroke-linecap: butt; stroke-linejoin: miter; stroke-miterlimit: 10; fill: rgb(0,0,0); fill-rule: nonzero; opacity: 1;" transform=" matrix(1 0 0 1 0 0) " stroke-linecap="round" />
</g>
</svg>